<?xml version="1.0" standalone="no"?>
<!DOCTYPE svg PUBLIC "-//W3C//DTD SVG 20010904//EN"
 "http://www.w3.org/TR/2001/REC-SVG-20010904/DTD/svg10.dtd">
<svg version="1.0" xmlns="http://www.w3.org/2000/svg"
 width="3240.000000pt" height="3240.000000pt" viewBox="0 0 3240.000000 3240.000000"
 preserveAspectRatio="xMidYMid meet">
<metadata>
Created by potrace 1.14, written by Peter Selinger 2001-2017
</metadata>
<g transform="translate(0.000000,3240.000000) scale(0.100000,-0.100000)"
fill="#000000" stroke="none">
<path d="M0 16200 l0 -16200 16200 0 16200 0 0 16200 0 16200 -16200 0 -16200
0 0 -16200z m6060 5111 c0 -5 12 -11 28 -13 22 -2 28 -8 30 -35 2 -25 -1 -33
-12 -33 -9 0 -16 -7 -16 -15 0 -8 -7 -15 -15 -15 -8 0 -15 -7 -15 -15 0 -8 -7
-15 -15 -15 -11 0 -15 -11 -15 -37 0 -76 -21 -109 -35 -56 -3 15 -10 30 -15
33 -5 3 -12 18 -15 33 -6 21 -4 27 9 27 11 0 16 9 16 29 0 16 -4 31 -8 33 -5
2 -12 15 -15 30 -6 23 -4 27 23 33 17 4 30 11 30 16 0 5 9 9 20 9 11 0 20 -4
20 -9z m19484 -17 c29 -4 46 -12 46 -20 0 -8 7 -14 15 -14 12 0 15 -17 15 -90
0 -73 -3 -90 -15 -90 -8 0 -15 -7 -15 -15 0 -12 -15 -15 -75 -15 -60 0 -75 3
-75 15 0 8 -6 15 -14 15 -14 0 -26 29 -26 68 0 12 -4 22 -10 22 -5 0 -10 7
-10 15 0 8 5 15 10 15 6 0 10 14 10 30 0 20 5 30 15 30 7 0 18 6 22 14 15 24
39 29 107 20z m-14584 -44 c0 -5 -11 -10 -25 -10 -14 0 -25 5 -25 10 0 6 11
10 25 10 14 0 25 -4 25 -10z m-3893 -126 c132 -94 160 -130 106 -136 -22 -2
-29 -9 -31 -30 -2 -16 -9 -28 -18 -28 -8 0 -14 -9 -14 -20 0 -11 -4 -20 -10
-20 -5 0 -10 7 -10 15 0 11 -12 15 -50 15 -38 0 -50 -4 -50 -15 0 -8 7 -15 15
-15 9 0 15 -9 15 -25 0 -16 6 -25 15 -25 8 0 15 -9 15 -20 0 -17 7 -20 45 -20
33 0 45 -4 45 -15 0 -10 10 -15 30 -15 20 0 30 -5 30 -15 0 -10 11 -15 35 -15
24 0 35 -5 35 -15 0 -8 7 -15 15 -15 12 0 15 -16 15 -80 0 -64 -3 -80 -15 -80
-8 0 -15 -7 -15 -15 0 -8 -7 -15 -15 -15 -8 0 -15 -7 -15 -15 0 -11 -12 -15
-50 -15 -38 0 -50 4 -50 15 0 10 -10 15 -30 15 -26 0 -30 3 -30 29 0 25 -5 31
-30 36 -16 4 -30 11 -30 16 0 5 -6 9 -14 9 -7 0 -16 14 -19 30 -7 31 -27 42
-27 15 0 -8 -6 -15 -14 -15 -8 0 -17 -13 -21 -30 l-7 -30 -74 0 c-59 0 -74 -3
-74 -15 0 -8 -7 -15 -15 -15 -8 0 -15 -7 -15 -15 0 -33 -47 -13 -114 50 -37
36 -63 65 -57 65 6 0 14 18 17 39 4 22 13 42 20 45 8 3 14 12 14 21 0 9 9 15
25 15 16 0 25 6 25 15 0 8 9 15 20 15 11 0 20 7 20 15 0 10 10 15 30 15 20 0
30 5 30 15 0 8 7 15 15 15 10 0 15 10 15 30 0 18 5 30 13 30 14 0 47 35 47 50
0 6 7 13 15 16 8 4 15 12 15 20 0 8 6 14 14 14 9 0 16 17 20 45 4 25 11 45 17
45 5 0 9 7 9 15 0 8 9 15 20 15 11 0 20 7 20 15 0 22 6 20 77 -31z m-2532
-542 c3 -18 11 -32 16 -32 5 0 9 -13 9 -30 0 -26 -3 -30 -29 -30 -34 0 -41 17
-41 104 0 59 0 60 19 40 10 -12 22 -35 26 -52z m4225 -2 c0 -28 -3 -30 -35
-30 -24 0 -35 -5 -35 -15 0 -10 -10 -15 -30 -15 -20 0 -30 -5 -30 -15 0 -11
-12 -15 -45 -15 l-45 0 0 44 c0 76 -1 76 116 76 l104 0 0 -30z m-4130 -135 c0
-10 10 -15 30 -15 28 0 30 -3 30 -36 0 -33 -2 -36 -22 -30 -13 3 -26 6 -30 6
-5 0 -8 14 -8 30 0 20 -5 30 -15 30 -8 0 -15 7 -15 15 0 8 7 15 15 15 8 0 15
-7 15 -15z m3910 0 c0 -8 7 -15 15 -15 11 0 15 -12 15 -45 0 -32 -4 -45 -14
-45 -8 0 -16 4 -18 9 -1 5 -29 12 -60 16 -49 6 -58 5 -58 -8 0 -9 -5 -19 -11
-23 -19 -12 -32 13 -25 50 6 29 11 36 31 36 13 0 28 6 32 14 16 27 93 37 93
11z m150 0 c0 -8 -7 -15 -15 -15 -8 0 -15 7 -15 15 0 8 7 15 15 15 8 0 15 -7
15 -15z m-3910 -100 c0 -8 7 -15 15 -15 8 0 15 -7 15 -15 0 -8 9 -15 20 -15
11 0 20 -7 20 -15 0 -11 12 -15 45 -15 25 0 45 -4 45 -10 0 -24 -140 -24 -148
0 -2 5 -10 10 -17 10 -7 0 -16 13 -20 29 -3 16 -13 32 -21 35 -25 10 -15 26
16 26 20 0 30 -5 30 -15z m444 -31 c3 -9 6 -49 6 -89 0 -40 -3 -80 -6 -89 -7
-17 -34 -22 -34 -6 0 5 -16 12 -35 16 -20 3 -35 12 -35 20 0 8 -7 14 -15 14
-11 0 -15 11 -15 43 0 46 20 72 65 83 14 3 25 10 25 15 0 16 38 10 44 -7z
m3188 -224 c-3 -31 -11 -38 -22 -20 -16 25 -12 52 8 48 11 -3 16 -12 14 -28z
m-3472 -85 c0 -8 7 -15 15 -15 8 0 15 7 15 15 0 10 10 15 30 15 27 0 30 -3 30
-30 0 -16 -4 -30 -10 -30 -5 0 -10 -7 -10 -15 0 -8 -9 -15 -20 -15 -11 0 -20
-7 -20 -15 0 -8 -7 -15 -15 -15 -8 0 -15 7 -15 15 0 8 -7 15 -15 15 -10 0 -15
-10 -15 -30 0 -28 -2 -30 -40 -30 -27 0 -47 7 -60 20 -21 21 -26 40 -11 40 5
0 12 11 15 25 11 43 37 63 84 64 31 1 42 -3 42 -14z m-127 -214 c4 -17 11 -19
66 -14 l61 6 0 -37 c0 -25 4 -36 15 -36 8 0 15 -4 15 -10 0 -5 7 -10 15 -10 8
0 15 -9 15 -20 0 -11 7 -20 15 -20 8 0 15 -7 15 -15 0 -8 7 -15 15 -15 11 0
15 -12 15 -45 0 -33 -4 -45 -15 -45 -8 0 -23 -9 -32 -20 -10 -11 -23 -20 -30
-20 -7 0 -13 -7 -13 -15 0 -8 -7 -15 -15 -15 -8 0 -15 -4 -15 -10 0 -5 -7 -10
-15 -10 -8 0 -15 7 -15 15 0 8 7 15 15 15 20 0 20 54 -1 74 -9 10 -33 16 -59
16 -36 0 -44 3 -49 23 -6 27 3 67 15 67 5 0 9 9 9 20 0 11 -4 20 -10 20 -5 0
-10 11 -10 25 0 16 -6 25 -15 25 -8 0 -15 7 -15 15 0 9 -7 18 -15 21 -24 10
-18 34 9 34 15 0 26 -7 29 -19z m11647 -156 c0 -8 7 -15 15 -15 8 0 15 -7 15
-15 0 -8 -7 -15 -15 -15 -8 0 -15 -7 -15 -15 0 -33 -29 -13 -43 30 l-16 45 30
0 c19 0 29 -5 29 -15z m-11697 -185 c9 -11 24 -20 32 -20 8 0 15 -7 15 -15 0
-8 -4 -15 -10 -15 -5 0 -10 -7 -10 -15 0 -8 -9 -15 -20 -15 -11 0 -20 7 -20
15 0 8 -4 15 -9 15 -5 0 -11 9 -14 20 -4 15 -14 20 -36 20 -33 0 -42 16 -13
23 39 10 68 6 85 -13z m13930 -186 c185 -61 351 -156 480 -274 71 -65 176
-202 160 -207 -8 -3 -13 -22 -13 -49 0 -32 -4 -44 -15 -44 -10 0 -15 -10 -15
-34 0 -54 -11 -96 -26 -96 -8 0 -14 -7 -14 -15 0 -10 -10 -15 -30 -15 -20 0
-30 -5 -30 -15 0 -8 -7 -15 -15 -15 -8 0 -15 -7 -15 -15 0 -8 -7 -15 -15 -15
-8 0 -15 -7 -15 -15 0 -11 -12 -15 -45 -15 -43 0 -45 -2 -45 -28 0 -45 -33
-65 -117 -70 -40 -3 -73 -9 -73 -13 0 -5 -13 -9 -30 -9 -16 0 -30 4 -30 9 0 5
-13 12 -28 16 -18 4 -34 18 -47 41 -28 52 -143 155 -216 194 -35 18 -95 46
-134 60 -70 27 -70 27 -73 69 -2 28 -8 41 -18 41 -8 0 -14 7 -14 15 0 8 -7 15
-15 15 -12 0 -15 16 -15 80 0 64 3 80 15 80 12 0 15 13 15 60 0 45 4 60 14 60
8 0 17 14 21 30 4 17 11 30 16 30 5 0 9 14 9 30 0 18 6 33 15 36 8 4 15 12 15
20 0 8 7 14 15 14 8 0 15 7 15 15 0 8 6 15 14 15 14 0 26 29 26 66 l0 21 83
-19 c45 -10 130 -35 190 -54z m-12793 -219 c0 -8 7 -15 15 -15 8 0 15 -9 15
-20 0 -11 7 -20 15 -20 11 0 15 -11 15 -40 0 -26 5 -43 14 -46 22 -8 27 -46
20 -134 -7 -80 -7 -80 -35 -80 -19 0 -29 -5 -29 -15 0 -11 -12 -15 -45 -15
l-45 0 0 -45 0 -45 -50 0 -50 0 0 40 c0 31 -4 40 -17 40 -10 0 -28 3 -40 6
-15 4 -22 1 -26 -13 -3 -10 -5 -4 -6 15 -1 22 4 32 14 32 8 0 15 7 15 15 0 8
-4 15 -10 15 -5 0 -10 7 -10 15 0 8 -9 15 -20 15 -11 0 -20 7 -20 15 0 8 -7
15 -15 15 -8 0 -15 7 -15 15 0 8 -7 15 -15 15 -12 0 -15 17 -15 89 l0 89 30 7
c17 4 30 13 30 21 0 9 11 14 30 14 20 0 30 5 30 15 0 12 19 15 110 15 91 0
110 -3 110 -15z m-1210 -44 c0 -21 -6 -30 -22 -35 -36 -9 -38 -8 -38 29 0 32
2 35 30 35 26 0 30 -3 30 -29z m30 -86 c0 -8 -4 -15 -10 -15 -5 0 -10 7 -10
15 0 8 5 15 10 15 6 0 10 -7 10 -15z m1360 -269 c0 -16 -19 -25 -37 -18 -23 8
-14 32 12 32 15 0 25 -6 25 -14z m-990 -146 c0 -34 -19 -41 -27 -10 -3 11 -9
20 -14 20 -5 0 -9 5 -9 10 0 6 11 10 25 10 21 0 25 -5 25 -30z m140 -834 c0
-426 -3 -781 -6 -790 -8 -20 -34 -21 -34 -1 0 21 -22 19 -43 -5 -30 -35 -22
-48 27 -43 39 5 44 3 49 -18 4 -13 7 -41 7 -61 l0 -38 -370 0 -370 0 0 25 c0
18 5 25 19 25 16 0 21 9 26 45 6 33 12 46 29 51 11 4 24 12 28 18 6 8 8 7 8
-1 0 -7 7 -13 15 -13 8 0 15 7 15 15 0 8 7 15 15 15 9 0 15 9 15 25 0 16 6 25
15 25 11 0 15 12 15 50 0 38 -4 50 -15 50 -12 0 -15 14 -15 65 l0 65 30 0 c20
0 30 5 30 15 0 8 8 15 18 15 15 0 17 9 17 62 0 40 5 63 13 66 17 5 17 149 0
154 -7 3 -14 32 -16 76 -3 53 -8 72 -18 72 -9 0 -14 11 -14 30 0 27 -3 30 -30
30 l-30 0 0 80 c0 64 -3 80 -15 80 -8 0 -15 7 -15 15 0 12 -14 15 -65 15 -64
0 -65 0 -65 28 0 70 13 132 28 132 11 0 13 9 9 41 -3 23 -10 45 -15 48 -6 3
-13 18 -17 32 -6 26 -6 27 56 31 35 3 65 10 67 16 2 7 13 12 25 12 37 0 67 12
67 25 0 8 7 21 17 30 13 14 27 15 77 10 34 -4 63 -11 66 -15 3 -4 15 -11 28
-15 19 -5 25 -3 29 14 3 12 12 21 19 21 8 0 14 7 14 16 0 14 9 16 62 11 34 -3
64 -10 66 -16 4 -13 32 -15 32 -2 0 5 14 12 30 16 25 5 30 11 30 36 0 19 5 29
15 29 8 0 15 7 15 15 0 8 -7 15 -15 15 -8 0 -15 7 -15 15 0 8 9 15 20 15 20 0
20 -7 20 -774z m7440 294 c0 -5 -7 -10 -15 -10 -8 0 -15 5 -15 10 0 6 7 10 15
10 8 0 15 -4 15 -10z m-1920 -435 c0 -8 7 -15 15 -15 8 0 15 -4 15 -10 0 -21
44 -52 81 -57 38 -5 39 -7 39 -44 0 -33 3 -38 30 -44 17 -4 30 -13 30 -21 0
-8 9 -22 20 -31 11 -10 20 -23 20 -30 0 -9 15 -13 45 -13 33 0 45 -4 45 -15 0
-8 7 -15 15 -15 11 0 15 -12 15 -50 0 -38 -4 -50 -15 -50 -8 0 -15 -7 -15 -15
0 -8 7 -15 15 -15 60 0 -69 -144 -216 -240 -204 -134 -441 -199 -805 -220
-394 -22 -754 28 -1002 141 -85 38 -232 136 -232 155 0 8 -8 14 -17 14 -16 0
-107 89 -99 97 2 2 15 1 30 -3 21 -5 26 -12 26 -35 0 -26 4 -29 30 -29 27 0
30 3 30 30 0 20 5 30 15 30 8 0 15 7 15 15 0 8 7 15 15 15 8 0 15 7 15 15 0 8
7 15 15 15 9 0 18 7 21 15 4 10 20 15 50 15 32 0 44 -4 44 -15 0 -8 7 -15 15
-15 8 0 15 -7 15 -15 0 -8 6 -15 14 -15 8 0 16 -5 18 -11 2 -5 22 -13 46 -16
41 -6 42 -5 42 25 0 49 10 62 51 68 21 4 39 10 39 15 0 5 9 9 20 9 11 0 20 -4
20 -10 0 -5 14 -10 30 -10 17 0 30 4 30 9 0 5 9 11 20 14 11 3 20 12 20 21 0
9 -8 16 -20 16 -16 0 -20 7 -20 30 0 20 5 30 15 30 10 0 15 10 15 27 0 14 8
34 18 43 16 16 20 16 64 -6 79 -40 186 -65 306 -71 109 -6 112 -7 112 -29 0
-20 5 -24 30 -24 20 0 30 -5 30 -15 0 -8 7 -15 15 -15 8 0 15 -7 15 -15 0 -12
13 -15 59 -15 43 0 60 4 65 15 3 8 12 15 21 15 8 0 15 7 15 16 0 13 6 15 28 9
15 -3 29 -11 30 -16 2 -5 24 -9 48 -9 42 0 44 1 44 30 l0 30 -65 0 c-51 0 -65
3 -65 15 0 8 6 15 14 15 8 0 16 6 18 13 3 8 35 13 96 15 72 3 92 7 92 18 0 8
7 17 15 20 8 3 17 15 21 27 3 11 26 40 50 65 24 24 44 46 44 49 0 2 10 17 22
33 21 29 68 42 68 20 0 -5 7 -10 15 -10 8 0 15 7 15 15 0 11 12 15 50 15 38 0
50 -4 50 -15z m6705 -220 c102 -28 120 -36 123 -54 2 -14 -2 -21 -12 -21 -9 0
-16 -6 -16 -14 0 -9 -14 -15 -40 -18 -64 -6 -120 2 -120 18 0 8 -7 14 -15 14
-8 0 -15 7 -15 15 0 8 -7 15 -15 15 -8 0 -15 7 -15 15 0 8 -7 15 -15 15 -10 0
-15 10 -15 31 0 26 3 30 18 24 9 -4 71 -21 137 -40z m-12825 -95 c0 -5 -7 -10
-15 -10 -8 0 -15 5 -15 10 0 6 7 10 15 10 8 0 15 -4 15 -10z m6550 -30 c0 -5
-7 -10 -15 -10 -8 0 -15 5 -15 10 0 6 7 10 15 10 8 0 15 -4 15 -10z m16016
-450 c8 0 14 -4 14 -10 0 -5 -22 -10 -50 -10 -27 0 -50 4 -50 9 0 11 38 20 58
15 8 -2 20 -4 28 -4z m-18462 -752 c3 -18 7 -73 10 -123 7 -122 55 -891 121
-1950 31 -484 67 -1069 81 -1300 30 -502 28 -485 58 -485 17 0 26 7 30 23 3
13 62 320 131 683 69 362 147 774 175 914 27 140 85 446 129 680 45 234 83
435 86 448 l5 22 367 -2 367 -3 71 -375 c149 -776 228 -1192 335 -1765 61
-324 113 -598 116 -607 4 -12 15 -18 33 -18 33 0 29 -29 58 445 13 219 19 282
27 258 5 -18 13 -33 17 -33 5 0 9 -13 9 -30 0 -19 5 -30 14 -30 10 0 17 -16
22 -46 7 -48 29 -84 50 -84 7 0 15 -6 18 -12 3 -9 8 -8 16 5 6 10 23 17 40 17
25 0 30 4 30 25 0 17 -6 25 -17 26 -17 1 -17 2 0 6 25 7 22 49 -4 56 -19 5
-21 10 -15 51 6 38 4 46 -8 46 -11 0 -16 9 -16 30 0 28 -3 30 -35 30 -24 0
-35 5 -35 14 0 8 -4 16 -10 18 -5 2 -10 23 -12 48 -3 42 -5 45 -34 48 -30 3
-31 4 -27 50 2 26 26 405 53 842 52 823 93 1465 110 1725 6 83 13 203 17 268
l6 117 309 0 308 0 0 -22 c0 -22 -44 -646 -95 -1343 -36 -489 -163 -2293 -170
-2405 -10 -173 -26 -365 -31 -393 l-6 -27 -111 6 c-62 4 -114 10 -117 15 -3 4
-18 11 -33 14 -21 6 -27 4 -27 -9 0 -9 -6 -16 -14 -16 -11 0 -15 -21 -18 -92
-2 -61 -7 -93 -15 -96 -9 -2 -13 -31 -13 -98 l0 -94 -30 0 c-20 0 -30 -5 -30
-15 0 -8 -6 -15 -14 -15 -8 0 -16 -7 -20 -15 -3 -8 -12 -15 -21 -15 -8 0 -15
-4 -15 -10 0 -6 -97 -10 -270 -10 l-270 0 -5 23 c-6 28 -111 620 -216 1222
-44 253 -108 624 -144 825 -35 201 -74 422 -86 493 l-23 127 -30 0 -31 0 -38
-222 c-47 -270 -101 -583 -122 -698 -9 -47 -56 -319 -106 -605 -49 -286 -107
-619 -129 -740 -21 -121 -46 -266 -56 -322 l-17 -103 -498 0 -497 0 -6 63 c-6
67 -33 426 -41 547 -5 76 -22 318 -50 695 -26 368 -195 2755 -215 3050 -6 83
-13 180 -16 218 l-6 67 321 0 320 0 5 -32z m3902 -515 c-10 -10 -19 5 -10 18
6 11 8 11 12 0 2 -7 1 -15 -2 -18z m34 -78 c0 -8 6 -15 14 -15 10 0 17 -16 22
-45 8 -60 -2 -115 -23 -115 -13 0 -15 -8 -10 -42 3 -24 11 -44 16 -46 15 -5
14 -69 -1 -76 -10 -5 -10 -7 0 -12 6 -3 12 -22 12 -41 0 -35 0 -35 35 -29 31
6 35 4 35 -14 0 -11 5 -20 10 -20 6 0 10 -7 10 -15 0 -8 7 -15 15 -15 8 0 15
-7 15 -15 0 -8 -4 -15 -10 -15 -5 0 -10 -7 -10 -15 0 -9 -7 -18 -15 -21 -16
-6 -21 -54 -6 -54 5 0 11 -9 14 -20 4 -18 11 -19 52 -13 l48 6 -5 -63 c-3 -36
-10 -66 -16 -68 -7 -2 -12 -17 -12 -33 0 -19 -5 -29 -15 -29 -11 0 -15 -12
-15 -44 0 -35 -4 -45 -20 -49 -15 -4 -20 -14 -20 -36 0 -17 -4 -31 -10 -31
-15 0 -50 -33 -50 -47 0 -7 -7 -13 -15 -13 -10 0 -15 -10 -15 -30 0 -20 -5
-30 -15 -30 -10 0 -15 -10 -15 -30 0 -20 -5 -30 -15 -30 -11 0 -15 -12 -15
-50 0 -38 -4 -50 -15 -50 -9 0 -15 -9 -15 -25 0 -14 -7 -28 -15 -31 -10 -4
-15 -20 -15 -50 0 -32 -4 -44 -15 -44 -11 0 -15 -11 -15 -42 0 -50 -32 -88
-74 -88 -16 0 -26 -5 -26 -15 0 -8 -5 -15 -11 -15 -6 0 -17 -7 -25 -15 -10 -9
-34 -15 -65 -15 -48 0 -49 -1 -49 -30 0 -29 -1 -30 -47 -30 l-46 0 6 183 c9
234 22 373 54 572 36 229 105 494 168 648 9 21 41 22 61 3 16 -17 19 -36 4
-36 -5 0 -10 -13 -10 -30 0 -16 5 -30 10 -30 6 0 10 11 10 25 0 18 5 25 20 25
16 0 20 7 20 35 0 28 -4 35 -20 35 -22 0 -23 3 -14 38 4 14 14 22 29 22 19 0
23 7 29 46 3 26 6 62 6 80 0 31 3 34 30 34 20 0 30 5 30 15 0 8 7 15 15 15 8
0 15 -7 15 -15z m250 -440 c0 -33 -4 -45 -15 -45 -11 0 -15 12 -15 45 0 33 4
45 15 45 11 0 15 -12 15 -45z m-60 -1081 c0 -8 7 -22 15 -30 19 -19 20 -54 1
-54 -8 0 -17 -13 -21 -30 -6 -27 -10 -30 -45 -30 -42 0 -50 12 -50 87 0 51 20
73 66 73 24 0 34 -4 34 -16z m5280 -608 c0 -34 -18 -42 -41 -17 -27 29 -24 41
11 41 25 0 30 -4 30 -24z m3220 -221 c0 -61 -1 -65 -22 -65 -57 0 -68 10 -68
56 0 32 4 44 15 44 8 0 15 7 15 15 0 10 10 15 30 15 l30 0 0 -65z m-9060 -170
c0 -8 7 -15 15 -15 8 0 15 -7 15 -15 0 -8 7 -15 15 -15 11 0 15 -12 15 -50 0
-38 -4 -50 -15 -50 -8 0 -15 -4 -15 -10 0 -5 -6 -10 -14 -10 -9 0 -17 22 -25
63 -6 34 -14 74 -17 90 -4 20 -2 27 10 27 9 0 16 -7 16 -15z m4900 -85 c0 -47
-27 -80 -65 -80 -24 0 -25 3 -25 60 l0 60 45 0 45 0 0 -40z m-11067 -405 c157
-33 267 -117 330 -252 30 -66 31 -72 35 -238 6 -243 -17 -326 -121 -433 -102
-106 -221 -142 -464 -142 -265 0 -399 52 -491 190 -63 94 -74 153 -70 376 l3
190 37 75 c71 144 181 217 363 242 77 10 314 6 378 -8z m15870 -392 c-13 -2
-35 -2 -50 0 -16 2 -5 4 22 4 28 0 40 -2 28 -4z m-9143 -178 c0 -8 5 -15 10
-15 6 0 10 -7 10 -15 0 -8 -4 -15 -10 -15 -23 0 -8 -19 20 -25 17 -4 30 -13
30 -21 0 -8 7 -14 15 -14 10 0 15 -10 15 -30 0 -28 -2 -30 -40 -30 -34 0 -48
7 -86 42 -31 28 -42 44 -34 52 5 5 10 27 10 48 0 36 2 38 30 38 20 0 30 -5 30
-15z m8977 -85 c3 -11 9 -20 14 -20 5 0 9 -13 9 -30 0 -16 -4 -30 -9 -30 -5 0
-12 -13 -16 -30 -6 -28 -10 -30 -51 -30 -32 0 -44 4 -44 15 0 8 -7 15 -15 15
-12 0 -15 13 -15 59 0 66 2 68 78 70 36 1 45 -3 49 -19z m3407 -5 c3 -8 12
-15 21 -15 10 0 15 -10 15 -30 0 -20 5 -30 15 -30 8 0 15 -7 15 -15 0 -8 -7
-15 -15 -15 -11 0 -15 -12 -15 -50 0 -38 -4 -50 -15 -50 -8 0 -15 -7 -15 -15
0 -12 -13 -15 -57 -15 -72 0 -103 8 -103 26 0 8 -7 14 -15 14 -10 0 -15 10
-15 30 0 20 -5 30 -15 30 -11 0 -15 12 -15 45 0 33 4 45 15 45 8 0 15 7 15 15
0 8 7 15 15 15 8 0 15 7 15 15 0 12 15 15 74 15 56 0 75 -4 80 -15z m-12103
-45 l59 0 0 -45 c0 -43 -1 -45 -30 -45 -20 0 -30 5 -30 15 0 8 -7 15 -16 15
-8 0 -22 7 -30 15 -9 8 -24 15 -35 15 -10 0 -19 7 -19 15 0 8 7 15 15 15 8 0
16 8 16 18 1 16 2 16 6 0 4 -15 16 -18 64 -18z m149 -65 c0 -16 -6 -25 -15
-25 -8 0 -15 7 -15 15 0 8 -7 15 -15 15 -8 0 -15 5 -15 10 0 6 14 10 30 10 25
0 30 -4 30 -25z m11430 -135 c0 -5 7 -10 16 -10 9 0 18 -9 21 -20 3 -11 9 -20
14 -20 5 0 9 -11 9 -25 0 -25 -1 -25 -90 -25 -89 0 -90 0 -90 25 0 35 29 65
62 65 16 0 28 5 28 10 0 6 7 10 15 10 8 0 15 -4 15 -10z m1210 -65 c0 -8 8
-15 18 -15 14 0 15 -2 2 -10 -15 -10 -110 -14 -110 -5 0 3 8 14 18 24 21 24
72 28 72 6z"/>
<path d="M4600 18175 c0 -10 10 -15 30 -15 20 0 30 5 30 15 0 10 -10 15 -30
15 -20 0 -30 -5 -30 -15z"/>
<path d="M9600 16715 c0 -8 7 -15 15 -15 8 0 15 -7 15 -15 0 -10 10 -15 30
-15 20 0 30 5 30 15 0 8 -7 15 -15 15 -8 0 -15 7 -15 15 0 10 -10 15 -30 15
-20 0 -30 -5 -30 -15z"/>
<path d="M11060 13240 c0 -5 5 -10 10 -10 6 0 10 5 10 10 0 6 -4 10 -10 10 -5
0 -10 -4 -10 -10z"/>
<path d="M11000 13145 c0 -8 5 -15 10 -15 6 0 10 7 10 15 0 8 -4 15 -10 15 -5
0 -10 -7 -10 -15z"/>
<path d="M12460 14989 c0 -24 3 -30 16 -25 9 3 20 6 25 6 14 0 11 20 -5 36
-23 22 -36 16 -36 -17z"/>
<path d="M12360 14730 c0 -5 7 -10 15 -10 8 0 15 5 15 10 0 6 -7 10 -15 10 -8
0 -15 -4 -15 -10z"/>
<path d="M12330 13895 c0 -8 7 -15 15 -15 8 0 15 7 15 15 0 8 -7 15 -15 15 -8
0 -15 -7 -15 -15z"/>
</g>
</svg>
